<svg xmlns="http://www.w3.org/2000/svg" width="1024" height="1024" viewBox="0 0 1024 1024">
<g>
<path d="M 653.21 770.22 L 646.50 772.50 L 518.50 772.65 C448.10,772.73 388.56,772.41 386.19,771.94 C383.81,771.47 380.48,770.39 378.78,769.54 C377.08,768.69 375.09,768.00 374.35,768.00 C373.61,768.00 373.00,767.63 373.00,767.18 C373.00,766.72 370.93,765.32 368.40,764.06 C365.87,762.79 362.61,760.41 361.15,758.77 C359.69,757.12 357.46,755.38 356.19,754.89 C354.92,754.40 354.13,753.59 354.44,753.09 C354.75,752.59 353.68,751.07 352.06,749.70 C350.44,748.34 349.38,746.96 349.70,746.63 C350.02,746.31 349.55,745.76 348.65,745.42 C347.75,745.07 347.26,744.39 347.56,743.90 C347.87,743.40 347.61,743.00 347.00,743.00 C346.39,743.00 346.16,742.55 346.50,742.00 C346.84,741.45 346.61,741.00 346.00,741.00 C345.39,741.00 345.16,740.55 345.50,739.99 C345.85,739.44 345.40,738.71 344.51,738.36 C343.61,738.02 343.12,737.12 343.41,736.37 C343.70,735.62 343.47,735.00 342.91,735.00 C342.34,735.00 342.16,734.55 342.50,734.00 C342.84,733.45 342.59,733.00 341.95,733.00 C341.31,733.00 341.05,732.33 341.36,731.50 C341.68,730.67 341.54,730.00 341.06,730.00 C340.58,730.00 340.42,729.10 340.71,728.00 C341.00,726.90 340.84,726.00 340.37,726.00 C339.89,726.00 339.45,724.99 339.38,723.75 C338.73,711.82 338.71,229.00 339.36,229.00 C339.83,229.00 339.93,227.88 339.59,226.50 C339.20,224.94 339.39,224.00 340.09,224.00 C340.71,224.00 340.95,223.32 340.64,222.50 C340.32,221.68 340.55,221.00 341.14,221.00 C341.73,221.00 341.95,220.32 341.64,219.50 C341.32,218.68 341.53,218.00 342.09,218.00 C342.66,218.00 342.84,217.55 342.50,217.00 C342.16,216.45 342.39,216.00 343.00,216.00 C343.61,216.00 343.84,215.55 343.50,215.00 C343.16,214.45 343.39,214.00 344.00,214.00 C344.61,214.00 344.84,213.55 344.50,213.00 C344.16,212.45 344.39,212.00 345.00,212.00 C345.61,212.00 345.84,211.55 345.50,211.00 C345.16,210.45 345.39,210.00 346.00,210.00 C346.61,210.00 346.87,209.60 346.56,209.10 C346.26,208.61 346.75,207.93 347.65,207.58 C348.55,207.24 349.00,206.67 348.66,206.33 C348.31,205.98 348.81,205.13 349.77,204.43 C350.72,203.73 351.50,202.79 351.51,202.33 C351.51,201.19 361.92,191.00 363.07,191.00 C363.58,191.00 364.00,190.61 364.00,190.14 C364.00,188.84 375.85,182.79 377.00,183.50 C377.55,183.84 378.00,183.59 378.00,182.95 C378.00,182.31 378.67,182.05 379.50,182.36 C380.33,182.68 381.00,182.45 381.00,181.86 C381.00,181.27 381.67,181.05 382.50,181.36 C383.33,181.68 384.00,181.51 384.00,180.98 C384.00,180.45 385.01,180.06 386.25,180.10 C387.49,180.15 445.93,180.13 516.13,180.08 C586.32,180.02 644.46,180.24 645.33,180.57 C646.20,180.91 647.34,180.91 647.88,180.57 C648.42,180.24 649.13,180.41 649.46,180.94 C649.79,181.47 650.72,181.66 651.53,181.35 C652.34,181.04 653.00,181.31 653.00,181.95 C653.00,182.59 653.46,182.83 654.02,182.49 C654.58,182.14 656.60,182.83 658.52,184.01 C660.43,185.19 662.00,185.89 662.00,185.56 C662.00,185.02 665.73,187.14 668.50,189.24 C674.03,193.45 681.00,199.37 681.00,199.87 C681.00,200.22 682.28,202.00 683.85,203.83 C685.41,205.66 688.10,209.99 689.83,213.45 C690.58,214.97 691.25,216.06 691.83,217.19 C696.03,225.31 696.03,235.60 696.00,424.88 C696.00,440.36 696.00,457.03 696.00,475.00 C696.00,495.01 696.00,513.42 696.01,530.37 C696.04,713.87 696.04,725.01 691.53,733.85 C690.82,735.24 690.00,736.57 689.05,738.50 C686.89,742.90 682.83,749.07 680.02,752.20 C673.57,759.42 661.87,767.28 653.21,770.22 ZM 394.20 758.84 C395.26,759.84 640.00,759.64 640.00,758.63 C640.00,758.16 640.90,758.00 642.00,758.29 C643.10,758.58 644.00,758.35 644.00,757.79 C644.00,757.23 644.91,757.00 646.02,757.29 C647.13,757.58 648.70,757.16 649.51,756.35 C650.32,755.54 651.44,755.15 651.99,755.50 C652.55,755.84 653.00,755.71 653.00,755.22 C653.00,754.72 654.66,753.46 656.69,752.41 C660.73,750.31 662.21,749.19 667.77,744.03 C669.82,742.12 671.39,740.22 671.26,739.81 C671.13,739.40 671.93,738.57 673.04,737.98 C674.15,737.39 674.79,736.47 674.47,735.95 C674.15,735.43 674.43,735.00 675.11,735.00 C675.78,735.00 676.07,734.74 675.75,734.42 C675.43,734.10 676.06,732.94 677.16,731.84 C678.26,730.74 678.91,729.21 678.61,728.42 C678.31,727.64 678.55,727.00 679.14,727.00 C679.73,727.00 679.95,726.33 679.64,725.50 C679.32,724.67 679.55,724.00 680.14,724.00 C680.73,724.00 680.95,723.33 680.64,722.50 C680.32,721.67 680.55,721.00 681.14,721.00 C681.77,721.00 681.97,720.03 681.63,718.65 C681.30,717.36 681.27,716.06 681.55,715.78 C681.84,715.49 682.01,606.86 681.94,474.38 C681.86,341.90 681.84,232.49 681.89,231.25 C681.94,230.01 681.48,229.00 680.88,229.00 C680.28,229.00 680.03,228.35 680.34,227.56 C680.64,226.78 680.44,225.98 679.90,225.80 C679.36,225.62 678.84,224.46 678.74,223.24 C678.65,222.01 678.19,221.00 677.73,221.00 C677.26,221.00 677.16,220.55 677.50,220.00 C677.84,219.45 677.57,219.00 676.89,219.00 C676.22,219.00 675.90,218.76 676.19,218.47 C676.48,218.18 675.21,216.30 673.37,214.29 C671.53,212.28 670.25,210.41 670.53,210.14 C671.28,209.39 665.83,204.00 664.31,204.00 C663.59,204.00 663.00,203.55 663.00,203.00 C663.00,202.45 662.36,202.00 661.58,202.00 C660.80,202.00 660.02,201.65 659.83,201.22 C659.28,199.93 647.72,195.13 642.44,194.01 C639.09,193.29 597.56,193.04 513.50,193.23 L 389.50 193.50 L 383.40 196.07 C380.05,197.49 375.32,199.94 372.90,201.52 C366.48,205.72 358.43,215.51 355.26,222.98 L 352.50 229.50 L 352.24 472.00 C352.05,643.80 352.29,716.03 353.06,719.76 C354.68,727.60 360.43,738.24 366.30,744.26 C371.80,749.88 384.93,757.26 390.50,757.85 C392.15,758.03 393.82,758.47 394.20,758.84 ZM 647.18 742.23 L 640.54 745.50 L 519.02 745.66 C448.16,745.75 395.83,745.43 393.50,744.90 C388.04,743.64 384.00,741.94 384.00,740.88 C384.00,740.40 383.33,740.00 382.50,740.00 C381.67,740.00 381.00,739.55 381.00,739.00 C381.00,738.45 380.49,738.00 379.87,738.00 C378.49,738.00 371.47,730.81 371.79,729.72 C371.92,729.29 371.34,728.68 370.52,728.37 C369.69,728.05 369.26,727.39 369.56,726.90 C369.87,726.40 369.61,726.00 369.00,726.00 C368.39,726.00 368.16,725.55 368.50,725.00 C368.84,724.45 368.61,724.00 368.00,724.00 C367.39,724.00 367.16,723.55 367.50,723.00 C367.84,722.45 367.66,722.00 367.09,722.00 C366.53,722.00 366.32,721.33 366.64,720.50 C366.95,719.67 366.76,719.00 366.20,719.00 C365.64,719.00 365.42,718.10 365.71,717.00 C366.00,715.90 365.84,715.00 365.37,715.00 C364.22,715.00 364.23,235.70 365.38,234.86 C365.86,234.51 366.25,233.05 366.25,231.61 C366.25,230.18 366.67,229.00 367.18,229.00 C367.70,229.00 367.84,228.55 367.50,228.00 C367.16,227.45 367.39,227.00 368.00,227.00 C368.61,227.00 368.87,226.60 368.56,226.10 C368.26,225.61 368.75,224.93 369.65,224.58 C370.55,224.24 371.02,223.68 370.69,223.35 C370.36,223.02 371.08,221.92 372.29,220.91 C373.51,219.90 374.08,219.05 373.58,219.03 C372.14,218.98 377.18,214.00 378.67,214.00 C379.40,214.00 380.00,213.56 380.00,213.02 C380.00,211.59 389.95,206.77 391.60,207.40 C392.37,207.70 393.00,207.45 393.00,206.85 C393.00,206.23 393.93,206.01 395.20,206.34 C396.41,206.66 397.92,206.48 398.56,205.95 C399.83,204.90 631.79,205.11 638.06,206.17 C652.51,208.60 665.85,221.78 669.03,236.77 C669.70,239.88 669.95,322.57 669.77,478.50 L 669.50 715.50 L 667.17 721.28 C663.90,729.38 655.59,738.09 647.18,742.23 ZM 377.00 457.18 L 377.00 671.01 L 656.50 670.50 L 656.75 455.75 C656.90,327.46 656.64,241.00 656.10,241.00 C655.60,241.00 655.42,240.10 655.71,239.00 C656.01,237.84 655.74,237.00 655.06,237.00 C654.41,237.00 654.16,236.55 654.50,236.00 C654.84,235.45 654.61,235.00 654.00,235.00 C653.39,235.00 653.10,234.65 653.36,234.23 C653.62,233.81 651.21,230.85 647.99,227.66 C639.94,219.66 637.17,219.03 610.39,219.01 L 589.29 219.00 L 588.73 226.42 C587.75,239.41 581.92,248.52 571.61,253.19 C566.55,255.48 566.08,255.50 521.03,255.82 C475.01,256.13 466.07,255.64 459.86,252.43 C456.50,250.69 450.39,244.90 450.75,243.78 C450.89,243.35 450.52,243.00 449.94,243.00 C449.36,243.00 449.16,242.55 449.50,241.99 C449.85,241.44 449.40,240.71 448.51,240.36 C447.61,240.02 447.12,239.12 447.41,238.37 C447.70,237.62 447.52,237.00 447.00,237.00 C446.48,237.00 446.32,236.32 446.64,235.50 C446.95,234.68 446.78,234.00 446.25,234.00 C445.71,234.00 445.48,232.93 445.73,231.62 C445.98,230.31 445.70,228.93 445.09,228.56 C444.49,228.19 444.00,225.88 444.00,223.44 L 444.00 219.00 L 422.54 219.00 C396.87,219.00 392.68,220.01 384.81,228.07 C383.71,229.19 382.77,229.83 381.95,230.61 C376.95,235.38 376.95,245.40 376.99,406.45 C377.00,421.92 377.00,438.79 377.00,457.18 ZM 400.45 732.08 C401.87,733.45 634.00,733.30 634.00,731.93 C634.00,731.32 634.85,731.14 636.00,731.50 C637.22,731.89 638.00,731.68 638.00,730.96 C638.00,730.31 638.67,730.05 639.50,730.36 C640.33,730.68 641.00,730.49 641.00,729.95 C641.00,729.40 642.22,728.40 643.71,727.73 C646.50,726.46 653.01,721.00 651.72,721.00 C651.33,721.00 651.93,720.07 653.08,718.92 C654.22,717.78 654.91,716.21 654.61,715.42 C654.31,714.64 654.53,714.00 655.10,714.00 C655.68,714.00 655.86,713.12 655.50,712.00 C655.14,710.85 655.32,710.00 655.93,710.00 C657.09,710.00 657.45,691.27 656.37,687.25 L 655.77 685.00 L 376.76 685.00 L 377.19 697.75 C377.68,712.34 379.43,717.73 385.80,724.33 C390.15,728.84 392.18,730.05 396.39,730.69 C398.10,730.95 399.93,731.58 400.45,732.08 ZM 470.49 240.98 C470.90,241.65 486.71,242.00 516.11,242.00 C555.85,242.00 561.47,241.81 564.30,240.36 C568.54,238.19 573.04,234.38 572.28,233.61 C571.94,233.28 572.22,233.00 572.89,233.00 C573.57,233.00 573.86,232.58 573.54,232.07 C573.23,231.56 573.44,230.84 574.02,230.48 C574.61,230.13 574.82,229.01 574.50,228.00 C574.18,226.99 574.36,225.90 574.89,225.57 C575.42,225.24 575.73,223.74 575.57,222.23 L 575.28 219.50 L 459.00 218.98 L 459.00 223.97 C459.00,229.40 462.49,238.00 464.70,238.00 C465.41,238.00 466.00,238.48 466.00,239.06 C466.00,239.64 466.45,239.84 467.00,239.50 C467.55,239.16 468.00,239.39 468.00,240.00 C468.00,240.61 468.42,240.86 468.93,240.54 C469.44,240.23 470.14,240.42 470.49,240.98 ZM 550.00 713.00 C548.08,714.92 546.67,715.00 516.50,715.00 C496.17,715.00 485.00,714.65 485.00,714.00 C485.00,713.45 484.30,713.00 483.44,713.00 C482.58,713.00 482.16,712.55 482.50,712.00 C482.84,711.45 482.67,711.00 482.12,711.00 C480.29,711.00 481.37,706.53 483.75,704.25 C486.08,702.02 486.38,702.00 515.47,702.00 C531.62,702.00 545.51,701.74 546.34,701.42 C548.58,700.56 552.00,704.54 552.00,708.00 C552.00,709.67 551.11,711.89 550.00,713.00 Z" fill="rgb(67,146,153)"/>
<path d="M 566.61 481.91 L 502.17 546.32 L 496.84 546.64 C490.33,547.02 489.66,546.76 484.00,541.67 C474.90,533.49 413.44,472.60 411.76,470.09 C409.64,466.94 409.51,462.82 411.43,459.20 C412.98,456.28 440.92,428.32 444.97,425.64 C446.33,424.74 449.22,424.00 451.40,424.00 C455.13,424.00 456.14,424.78 469.90,438.25 C477.90,446.09 484.70,452.73 485.00,453.00 C485.31,453.27 488.14,455.96 491.29,458.97 L 497.01 464.44 L 541.44 419.70 C571.56,389.37 587.06,374.46 589.54,373.42 C596.10,370.68 598.12,371.87 614.86,388.36 C623.31,396.69 630.86,404.98 631.64,406.79 C632.08,407.80 632.48,408.64 632.66,409.52 C633.74,414.80 626.82,421.72 571.01,477.51 ZM 460.89 498.17 L 495.29 532.21 L 555.89 471.61 L 616.49 411.00 L 605.25 399.76 L 594.01 388.52 L 547.75 434.66 C499.17,483.13 498.33,483.84 492.81,480.91 C491.54,480.23 481.48,470.77 470.46,459.87 L 450.41 440.05 L 426.50 464.13 Z" fill="rgb(220,151,90)"/>
<path d="M 0.00 512.00 L 0.00 0.00 L 512.00 0.00 L 1024.00 0.00 L 1024.00 512.00 L 1024.00 1024.00 L 512.00 1024.00 L 0.00 1024.00 L 0.00 512.00 ZM 653.21 770.22 C661.87,767.28 673.57,759.42 680.02,752.20 C682.83,749.07 686.89,742.90 689.05,738.50 C696.60,723.13 696.00,745.82 696.00,475.00 C696.00,206.70 696.47,226.81 689.83,213.45 C688.10,209.99 685.41,205.66 683.85,203.83 C682.28,202.00 681.00,200.22 681.00,199.87 C681.00,199.37 674.03,193.45 668.50,189.24 C665.73,187.14 662.00,185.02 662.00,185.56 C662.00,185.89 660.43,185.19 658.52,184.01 C656.60,182.83 654.58,182.14 654.02,182.49 C653.46,182.83 653.00,182.59 653.00,181.95 C653.00,181.31 652.34,181.04 651.53,181.35 C650.72,181.66 649.79,181.47 649.46,180.94 C649.13,180.41 648.42,180.24 647.88,180.57 C647.34,180.91 646.20,180.91 645.33,180.57 C644.46,180.24 586.32,180.02 516.13,180.08 C445.93,180.13 387.49,180.15 386.25,180.10 C385.01,180.06 384.00,180.45 384.00,180.98 C384.00,181.51 383.33,181.68 382.50,181.36 C381.67,181.05 381.00,181.27 381.00,181.86 C381.00,182.45 380.33,182.68 379.50,182.36 C378.67,182.05 378.00,182.31 378.00,182.95 C378.00,183.59 377.55,183.84 377.00,183.50 C375.85,182.79 364.00,188.84 364.00,190.14 C364.00,190.61 363.58,191.00 363.07,191.00 C361.92,191.00 351.51,201.19 351.51,202.33 C351.50,202.79 350.72,203.73 349.77,204.43 C348.81,205.13 348.31,205.98 348.66,206.33 C349.00,206.67 348.55,207.24 347.65,207.58 C346.75,207.93 346.26,208.61 346.56,209.10 C346.87,209.60 346.61,210.00 346.00,210.00 C345.39,210.00 345.16,210.45 345.50,211.00 C345.84,211.55 345.61,212.00 345.00,212.00 C344.39,212.00 344.16,212.45 344.50,213.00 C344.84,213.55 344.61,214.00 344.00,214.00 C343.39,214.00 343.16,214.45 343.50,215.00 C343.84,215.55 343.61,216.00 343.00,216.00 C342.39,216.00 342.16,216.45 342.50,217.00 C342.84,217.55 342.66,218.00 342.09,218.00 C341.53,218.00 341.32,218.68 341.64,219.50 C341.95,220.32 341.73,221.00 341.14,221.00 C340.55,221.00 340.32,221.68 340.64,222.50 C340.95,223.32 340.71,224.00 340.09,224.00 C339.39,224.00 339.20,224.94 339.59,226.50 C339.93,227.88 339.83,229.00 339.36,229.00 C338.71,229.00 338.73,711.82 339.38,723.75 C339.45,724.99 339.89,726.00 340.37,726.00 C340.84,726.00 341.00,726.90 340.71,728.00 C340.42,729.10 340.58,730.00 341.06,730.00 C341.54,730.00 341.68,730.67 341.36,731.50 C341.05,732.33 341.31,733.00 341.95,733.00 C342.59,733.00 342.84,733.45 342.50,734.00 C342.16,734.55 342.34,735.00 342.91,735.00 C343.47,735.00 343.70,735.62 343.41,736.37 C343.12,737.12 343.61,738.02 344.51,738.36 C345.40,738.71 345.85,739.44 345.50,739.99 C345.16,740.55 345.39,741.00 346.00,741.00 C346.61,741.00 346.84,741.45 346.50,742.00 C346.16,742.55 346.39,743.00 347.00,743.00 C347.61,743.00 347.87,743.40 347.56,743.90 C347.26,744.39 347.75,745.07 348.65,745.42 C349.55,745.76 350.02,746.31 349.70,746.63 C349.38,746.96 350.44,748.34 352.06,749.70 C353.68,751.07 354.75,752.59 354.44,753.09 C354.13,753.59 354.92,754.40 356.19,754.89 C357.46,755.38 359.69,757.12 361.15,758.77 C362.61,760.41 365.87,762.79 368.40,764.06 C370.93,765.32 373.00,766.72 373.00,767.18 C373.00,767.63 373.61,768.00 374.35,768.00 C375.09,768.00 377.08,768.69 378.78,769.54 C380.48,770.39 383.81,771.47 386.19,771.94 C388.56,772.41 448.10,772.73 518.50,772.65 L 646.50 772.50 L 653.21 770.22 ZM 394.20 758.84 C393.82,758.47 392.15,758.03 390.50,757.85 C384.93,757.26 371.80,749.88 366.30,744.26 C360.43,738.24 354.68,727.60 353.06,719.76 C352.29,716.03 352.05,643.80 352.24,472.00 L 352.50 229.50 L 355.26 222.98 C358.43,215.51 366.48,205.72 372.90,201.52 C375.32,199.94 380.05,197.49 383.40,196.07 L 389.50 193.50 L 513.50 193.23 C597.56,193.04 639.09,193.29 642.44,194.01 C647.72,195.13 659.28,199.93 659.83,201.22 C660.02,201.65 660.80,202.00 661.58,202.00 C662.36,202.00 663.00,202.45 663.00,203.00 C663.00,203.55 663.59,204.00 664.31,204.00 C665.83,204.00 671.28,209.39 670.53,210.14 C670.25,210.41 671.53,212.28 673.37,214.29 C675.21,216.30 676.48,218.18 676.19,218.47 C675.90,218.76 676.22,219.00 676.89,219.00 C677.57,219.00 677.84,219.45 677.50,220.00 C677.16,220.55 677.26,221.00 677.73,221.00 C678.19,221.00 678.65,222.01 678.74,223.24 C678.84,224.46 679.36,225.62 679.90,225.80 C680.44,225.98 680.64,226.78 680.34,227.56 C680.03,228.35 680.28,229.00 680.88,229.00 C681.48,229.00 681.94,230.01 681.89,231.25 C681.84,232.49 681.86,341.90 681.94,474.38 C682.01,606.86 681.84,715.49 681.55,715.78 C681.27,716.06 681.30,717.36 681.63,718.65 C681.97,720.03 681.77,721.00 681.14,721.00 C680.55,721.00 680.32,721.67 680.64,722.50 C680.95,723.33 680.73,724.00 680.14,724.00 C679.55,724.00 679.32,724.67 679.64,725.50 C679.95,726.33 679.73,727.00 679.14,727.00 C678.55,727.00 678.31,727.64 678.61,728.42 C678.91,729.21 678.26,730.74 677.16,731.84 C676.06,732.94 675.43,734.10 675.75,734.42 C676.07,734.74 675.78,735.00 675.11,735.00 C674.43,735.00 674.15,735.43 674.47,735.95 C674.79,736.47 674.15,737.39 673.04,737.98 C671.93,738.57 671.13,739.40 671.26,739.81 C671.39,740.22 669.82,742.12 667.77,744.03 C662.21,749.19 660.73,750.31 656.69,752.41 C654.66,753.46 653.00,754.72 653.00,755.22 C653.00,755.71 652.55,755.84 651.99,755.50 C651.44,755.15 650.32,755.54 649.51,756.35 C648.70,757.16 647.13,757.58 646.02,757.29 C644.91,757.00 644.00,757.23 644.00,757.79 C644.00,758.35 643.10,758.58 642.00,758.29 C640.90,758.00 640.00,758.16 640.00,758.63 C640.00,759.64 395.26,759.84 394.20,758.84 ZM 647.18 742.23 C655.59,738.09 663.90,729.38 667.17,721.28 L 669.50 715.50 L 669.77 478.50 C669.95,322.57 669.70,239.88 669.03,236.77 C665.85,221.78 652.51,208.60 638.06,206.17 C631.79,205.11 399.83,204.90 398.56,205.95 C397.92,206.48 396.41,206.66 395.20,206.34 C393.93,206.01 393.00,206.23 393.00,206.85 C393.00,207.45 392.37,207.70 391.60,207.40 C389.95,206.77 380.00,211.59 380.00,213.02 C380.00,213.56 379.40,214.00 378.67,214.00 C377.18,214.00 372.14,218.98 373.58,219.03 C374.08,219.05 373.51,219.90 372.29,220.91 C371.08,221.92 370.36,223.02 370.69,223.35 C371.02,223.68 370.55,224.24 369.65,224.58 C368.75,224.93 368.26,225.61 368.56,226.10 C368.87,226.60 368.61,227.00 368.00,227.00 C367.39,227.00 367.16,227.45 367.50,228.00 C367.84,228.55 367.70,229.00 367.18,229.00 C366.67,229.00 366.25,230.18 366.25,231.61 C366.25,233.05 365.86,234.51 365.38,234.86 C364.23,235.70 364.22,715.00 365.37,715.00 C365.84,715.00 366.00,715.90 365.71,717.00 C365.42,718.10 365.64,719.00 366.20,719.00 C366.76,719.00 366.95,719.67 366.64,720.50 C366.32,721.33 366.53,722.00 367.09,722.00 C367.66,722.00 367.84,722.45 367.50,723.00 C367.16,723.55 367.39,724.00 368.00,724.00 C368.61,724.00 368.84,724.45 368.50,725.00 C368.16,725.55 368.39,726.00 369.00,726.00 C369.61,726.00 369.87,726.40 369.56,726.90 C369.26,727.39 369.69,728.05 370.52,728.37 C371.34,728.68 371.92,729.29 371.79,729.72 C371.47,730.81 378.49,738.00 379.87,738.00 C380.49,738.00 381.00,738.45 381.00,739.00 C381.00,739.55 381.67,740.00 382.50,740.00 C383.33,740.00 384.00,740.40 384.00,740.88 C384.00,741.94 388.04,743.64 393.50,744.90 C395.83,745.43 448.16,745.75 519.02,745.66 L 640.54 745.50 L 647.18 742.23 ZM 400.45 732.08 C399.93,731.58 398.10,730.95 396.39,730.69 C392.18,730.05 390.15,728.84 385.80,724.33 C379.43,717.73 377.68,712.34 377.19,697.75 L 376.76 685.00 L 516.27 685.00 L 655.77 685.00 L 656.37 687.25 C657.45,691.27 657.09,710.00 655.93,710.00 C655.32,710.00 655.14,710.85 655.50,712.00 C655.86,713.12 655.68,714.00 655.10,714.00 C654.53,714.00 654.31,714.64 654.61,715.42 C654.91,716.21 654.22,717.78 653.08,718.92 C651.93,720.07 651.33,721.00 651.72,721.00 C653.01,721.00 646.50,726.46 643.71,727.73 C642.22,728.40 641.00,729.40 641.00,729.95 C641.00,730.49 640.33,730.68 639.50,730.36 C638.67,730.05 638.00,730.31 638.00,730.96 C638.00,731.68 637.22,731.89 636.00,731.50 C634.85,731.14 634.00,731.32 634.00,731.93 C634.00,733.30 401.87,733.45 400.45,732.08 ZM 550.00 713.00 C551.11,711.89 552.00,709.67 552.00,708.00 C552.00,704.54 548.58,700.56 546.34,701.42 C545.51,701.74 531.62,702.00 515.47,702.00 C486.38,702.00 486.08,702.02 483.75,704.25 C481.37,706.53 480.29,711.00 482.12,711.00 C482.67,711.00 482.84,711.45 482.50,712.00 C482.16,712.55 482.58,713.00 483.44,713.00 C484.30,713.00 485.00,713.45 485.00,714.00 C485.00,714.65 496.17,715.00 516.50,715.00 C546.67,715.00 548.08,714.92 550.00,713.00 ZM 377.00 457.18 C377.00,216.29 376.30,236.78 384.81,228.07 C392.68,220.01 396.87,219.00 422.54,219.00 L 444.00 219.00 L 444.00 223.44 C444.00,225.88 444.49,228.19 445.09,228.56 C445.70,228.93 445.98,230.31 445.73,231.62 C445.48,232.93 445.71,234.00 446.25,234.00 C446.78,234.00 446.95,234.68 446.64,235.50 C446.32,236.32 446.48,237.00 447.00,237.00 C447.52,237.00 447.70,237.62 447.41,238.37 C447.12,239.12 447.61,240.02 448.51,240.36 C449.40,240.71 449.85,241.44 449.50,241.99 C449.16,242.55 449.36,243.00 449.94,243.00 C450.52,243.00 450.89,243.35 450.75,243.78 C450.39,244.90 456.50,250.69 459.86,252.43 C466.07,255.64 475.01,256.13 521.03,255.82 C566.08,255.50 566.55,255.48 571.61,253.19 C581.92,248.52 587.75,239.41 588.73,226.42 L 589.29 219.00 L 610.39 219.01 C637.17,219.03 639.94,219.66 647.99,227.66 C651.21,230.85 653.62,233.81 653.36,234.23 C653.10,234.65 653.39,235.00 654.00,235.00 C654.61,235.00 654.84,235.45 654.50,236.00 C654.16,236.55 654.41,237.00 655.06,237.00 C655.74,237.00 656.01,237.84 655.71,239.00 C655.42,240.10 655.60,241.00 656.10,241.00 C656.64,241.00 656.90,327.45 656.75,455.75 L 656.50 670.50 L 516.75 670.75 L 377.00 671.01 L 377.00 457.18 ZM 566.61 481.91 C636.22,412.32 634.75,414.01 631.64,406.79 C630.86,404.98 623.31,396.69 614.86,388.36 C598.12,371.87 596.10,370.68 589.54,373.42 C587.06,374.46 571.56,389.37 541.44,419.70 L 497.01 464.44 L 491.29 458.97 C488.14,455.96 485.31,453.27 485.00,453.00 C484.70,452.73 477.90,446.09 469.90,438.25 C456.14,424.78 455.13,424.00 451.40,424.00 C449.22,424.00 446.33,424.74 444.97,425.64 C440.92,428.32 412.98,456.28 411.43,459.20 C409.51,462.82 409.64,466.94 411.76,470.09 C413.44,472.60 474.90,533.49 484.00,541.67 C489.66,546.76 490.33,547.02 496.84,546.64 L 502.17 546.32 L 566.61 481.91 ZM 470.49 240.98 C470.14,240.42 469.44,240.23 468.93,240.54 C468.42,240.86 468.00,240.61 468.00,240.00 C468.00,239.39 467.55,239.16 467.00,239.50 C466.45,239.84 466.00,239.64 466.00,239.06 C466.00,238.48 465.41,238.00 464.70,238.00 C462.49,238.00 459.00,229.40 459.00,223.97 L 459.00 218.98 L 517.14 219.24 L 575.28 219.50 L 575.57 222.23 C575.73,223.74 575.42,225.24 574.89,225.57 C574.36,225.90 574.18,226.99 574.50,228.00 C574.82,229.01 574.61,230.13 574.02,230.48 C573.44,230.84 573.23,231.56 573.54,232.07 C573.86,232.58 573.57,233.00 572.89,233.00 C572.22,233.00 571.94,233.28 572.28,233.61 C573.04,234.38 568.54,238.19 564.30,240.36 C561.47,241.81 555.85,242.00 516.11,242.00 C486.71,242.00 470.90,241.65 470.49,240.98 ZM 460.89 498.17 L 426.50 464.13 L 438.46 452.09 L 450.41 440.05 L 470.46 459.87 C481.48,470.77 491.54,480.23 492.81,480.91 C498.33,483.84 499.17,483.13 547.75,434.66 L 594.01 388.52 L 605.25 399.76 L 616.49 411.00 L 555.89 471.61 L 495.29 532.21 L 460.89 498.17 Z" fill="rgb(246,246,246)"/>
</g>
</svg>